<svg width="1289" height="1011" viewBox="0 0 1289 1011" fill="none" xmlns="http://www.w3.org/2000/svg">
<g id="bottom">
<path d="M55.3207 1001.08L14.0372 968.844C5.37494 962.081 0.554692 953.161 0.554691 943.893L0.554688 859.25H1218.94L1286.11 921.375C1287.75 922.889 1288.68 924.977 1288.68 927.207V987.268C1288.68 999.971 1278.38 1010.25 1265.68 1010.25L84.2581 1010.25C73.2932 1010.25 62.8177 1006.93 55.3207 1001.08Z" fill="#009FF7"/>
<path d="M1280.97 117.692L395.313 853.496L207.875 1008.75L78.3073 1008.75C66.2168 1008.75 54.5357 1004.37 45.4272 996.418L14.9354 969.803C5.79801 961.827 0.554694 950.29 0.554694 938.161V860.53L207.875 687.272L1048.22 7.05268C1053.56 2.72958 1060.22 0.37085 1067.1 0.37085H1214.69C1222.19 0.37085 1229.18 4.19554 1233.22 10.517L1285.04 91.532C1290.48 100.03 1288.73 111.245 1280.97 117.692Z" fill="#009FF7"/>
</g>
</svg>
