<svg width="1289" height="1009" viewBox="0 0 1289 1009" fill="none" xmlns="http://www.w3.org/2000/svg">
<g id="top">
<path d="M202.555 1.74988H71.4706C61.5663 1.74988 52.033 5.51814 44.8055 12.2899L10.3595 44.5636C4.10426 50.4244 0.554932 58.6137 0.554932 67.1856V943.314C0.554932 951.886 4.10426 960.075 10.3595 965.936L44.8055 998.21C52.033 1004.98 61.5663 1008.75 71.4706 1008.75H202.555C206.973 1008.75 210.555 1005.17 210.555 1000.75V9.74988C210.555 5.3316 206.973 1.74988 202.555 1.74988Z" fill="#009FF7"/>
<path d="M1280.97 117.692L395.314 853.496L207.875 1008.75L78.3075 1008.75C66.217 1008.75 54.536 1004.37 45.4274 996.418L14.9357 969.803C5.79825 961.827 0.554932 950.29 0.554932 938.161V860.529L207.875 687.272L1048.22 7.05256C1053.56 2.72945 1060.22 0.370728 1067.1 0.370728H1214.69C1222.19 0.370728 1229.18 4.19542 1233.22 10.5169L1285.04 91.5319C1290.48 100.03 1288.73 111.245 1280.97 117.692Z" fill="#009FF7"/>
</g>
</svg>
